# Blender v2.83.5 OBJ File: ''
# www.blender.org
mtllib untitled.mtl
o Room_Test_Cube.007
v 0.799585 -0.550000 -1.279409
v 0.799585 -0.350000 -1.279409
v 0.799585 -0.550000 -1.379409
v 0.799585 -0.350000 -1.379409
v 0.899585 -0.550000 -1.279409
v 0.899585 -0.350000 -1.279409
v 0.899585 -0.550000 -1.379409
v 0.899585 -0.350000 -1.379409
v 0.879585 -0.550000 -1.379409
v 0.859585 -0.550000 -1.379409
v 0.839585 -0.550000 -1.379409
v 0.819585 -0.550000 -1.379409
v 0.819585 -0.350000 -1.379409
v 0.839585 -0.350000 -1.379409
v 0.859585 -0.350000 -1.379409
v 0.879585 -0.350000 -1.379409
v 0.819585 -0.550000 -1.279409
v 0.839585 -0.550000 -1.279409
v 0.859585 -0.550000 -1.279409
v 0.879585 -0.550000 -1.279409
v 0.879585 -0.350000 -1.279409
v 0.859585 -0.350000 -1.279409
v 0.839585 -0.350000 -1.279409
v 0.819585 -0.350000 -1.279409
v 0.799585 -0.550000 -1.359409
v 0.799585 -0.550000 -1.339409
v 0.799585 -0.550000 -1.319409
v 0.799585 -0.550000 -1.299409
v 0.799585 -0.350000 -1.299409
v 0.799585 -0.350000 -1.319409
v 0.799585 -0.350000 -1.339409
v 0.799585 -0.350000 -1.359409
v 0.899585 -0.550000 -1.299409
v 0.899585 -0.550000 -1.319409
v 0.899585 -0.550000 -1.339409
v 0.899585 -0.550000 -1.359409
v 0.899585 -0.350000 -1.359409
v 0.899585 -0.350000 -1.339409
v 0.899585 -0.350000 -1.319409
v 0.899585 -0.350000 -1.299409
v 0.879585 -0.350000 -1.359409
v 0.879585 -0.350000 -1.339409
v 0.879585 -0.350000 -1.319409
v 0.879585 -0.350000 -1.299409
v 0.859585 -0.350000 -1.359409
v 0.859585 -0.350000 -1.299409
v 0.839585 -0.350000 -1.359409
v 0.839585 -0.350000 -1.299409
v 0.819585 -0.350000 -1.359409
v 0.819585 -0.350000 -1.339409
v 0.819585 -0.350000 -1.319409
v 0.819585 -0.350000 -1.299409
v 0.879585 -0.500000 -1.359409
v 0.879585 -0.500000 -1.339409
v 0.879585 -0.500000 -1.319409
v 0.879585 -0.500000 -1.299409
v 0.859585 -0.500000 -1.359409
v 0.859585 -0.500000 -1.339409
v 0.859585 -0.500000 -1.319409
v 0.859585 -0.500000 -1.299409
v 0.839585 -0.500000 -1.359409
v 0.839585 -0.500000 -1.339409
v 0.839585 -0.500000 -1.319409
v 0.839585 -0.500000 -1.299409
v 0.819585 -0.500000 -1.359409
v 0.819585 -0.500000 -1.339409
v 0.819585 -0.500000 -1.319409
v 0.819585 -0.500000 -1.299409
v -1.700000 -1.700000 -1.700000
v -1.700000 1.700000 -1.700000
v 1.700000 -1.700000 1.700000
v 1.700000 1.700000 1.700000
v 1.700000 -1.700000 -1.700000
v 1.700000 1.700000 -1.700000
v -0.550000 -0.550000 -1.450000
v -0.550000 -0.450000 -1.450000
v -0.550000 -0.550000 -1.750000
v -0.550000 -0.450000 -1.750000
v 0.550000 -0.550000 -1.450000
v 0.550000 -0.450000 -1.450000
v 0.550000 -0.550000 -1.750000
v 0.550000 -0.450000 -1.750000
v -1.500000 -1.500000 1.500000
v -1.500000 -1.500000 -1.500000
v -1.500000 1.500000 -1.500000
v 1.500000 -1.500000 1.500000
v 1.500000 1.500000 1.500000
v 1.500000 -1.500000 -1.500000
v 1.500000 1.500000 -1.500000
v 0.500000 -1.500000 -1.500000
v -0.500000 -1.500000 -1.500000
v -0.500000 1.500000 -1.500000
v 0.500000 1.500000 -1.500000
v -0.500000 -1.500000 1.500000
v 0.500000 -1.500000 1.500000
v -1.500000 -1.500000 -0.500000
v -1.500000 -1.500000 0.500000
v 1.500000 -1.500000 0.500000
v 1.500000 -1.500000 -0.500000
v 1.500000 1.500000 -0.500000
v 1.500000 1.500000 0.500000
v -0.500000 -1.500000 0.500000
v -0.500000 -1.500000 -0.500000
v 0.500000 -1.500000 0.500000
v 0.500000 -1.500000 -0.500000
v -1.500000 0.500000 -1.500000
v -1.500000 -0.500000 -1.500000
v 1.500000 0.500000 -1.500000
v 1.500000 -0.500000 -1.500000
v 1.500000 0.500000 1.500000
v 1.500000 -0.500000 1.500000
v -0.500000 -0.500000 -1.500000
v -0.500000 0.500000 -1.500000
v 0.500000 -0.500000 -1.500000
v 0.500000 0.500000 -1.500000
v 1.500000 -0.500000 -0.500000
v 1.500000 0.500000 -0.500000
v 1.500000 -0.500000 0.500000
v 1.500000 0.500000 0.500000
v 1.699999 -1.500000 1.500000
v 1.699999 1.500000 1.500000
v 1.699999 0.500000 1.500000
v 1.699999 -0.500000 1.500000
v -1.500000 -1.500000 -1.700000
v -1.500000 1.500000 -1.700000
v -1.500000 0.500000 -1.700000
v -1.500000 -0.500000 -1.700000
v -1.500000 -1.700000 1.500000
v -1.500000 -1.700000 -1.500000
v 1.500000 -1.700000 1.500000
v -0.500000 -1.700000 1.500000
v 0.500000 -1.700000 1.500000
v -1.500000 -1.700000 -0.500000
v -1.500000 -1.700000 0.500000
v 1.699999 -1.700000 1.500000
v -1.500000 -1.700000 -1.700000
v -1.500000 1.500000 -1.700000
v 1.500000 1.500000 -1.700000
v -0.500000 1.500000 -1.700000
v 0.500000 1.500000 -1.700000
v 1.699999 1.500000 1.500000
v 1.699999 1.500000 -1.500000
v 1.699999 1.500000 -0.500000
v 1.699999 1.500000 0.500000
v 1.699999 1.500000 -1.700000
v -0.500000 -0.500000 -1.700000
v -0.500000 0.500000 -1.700000
v 0.500000 -0.500000 -1.700000
v 0.500000 0.500000 -1.700000
v 1.699999 -1.500000 0.500000
v 1.699999 -1.500000 -0.500000
v 1.699999 -0.500000 -0.500000
v 1.699999 0.500000 -0.500000
v 1.699999 -0.500000 0.500000
v 1.699999 0.500000 0.500000
v -1.000000 -0.650000 -0.700000
v -1.000000 -0.550000 -0.700000
v -1.000000 -0.650000 -1.500000
v -1.000000 -0.550000 -1.500000
v 1.000000 -0.650000 -0.700000
v 1.000000 -0.550000 -0.700000
v 1.000000 -0.650000 -1.500000
v 1.000000 -0.550000 -1.500000
v -1.000000 -0.650000 -1.340000
v -1.000000 -0.650000 -1.180000
v -1.000000 -0.650000 -1.020000
v -1.000000 -0.650000 -0.860000
v -1.000000 -0.550000 -0.860000
v -1.000000 -0.550000 -1.020000
v -1.000000 -0.550000 -1.180000
v -1.000000 -0.550000 -1.340000
v 1.000000 -0.650000 -0.860000
v 1.000000 -0.650000 -1.020000
v 1.000000 -0.650000 -1.180000
v 1.000000 -0.650000 -1.340000
v 1.000000 -0.550000 -1.340000
v 1.000000 -0.550000 -1.180000
v 1.000000 -0.550000 -1.020000
v 1.000000 -0.550000 -0.860000
v 0.800000 -0.650000 -1.500000
v 0.600000 -0.650000 -1.500000
v 0.400000 -0.650000 -1.500000
v 0.200000 -0.650000 -1.500000
v 0.000000 -0.650000 -1.500000
v -0.200000 -0.650000 -1.500000
v -0.400000 -0.650000 -1.500000
v -0.600000 -0.650000 -1.500000
v -0.800000 -0.650000 -1.500000
v -0.800000 -0.550000 -1.500000
v -0.600000 -0.550000 -1.500000
v -0.400000 -0.550000 -1.500000
v -0.200000 -0.550000 -1.500000
v 0.000000 -0.550000 -1.500000
v 0.200000 -0.550000 -1.500000
v 0.400000 -0.550000 -1.500000
v 0.600000 -0.550000 -1.500000
v 0.800000 -0.550000 -1.500000
v -0.800000 -0.650000 -0.700000
v -0.600000 -0.650000 -0.700000
v -0.400000 -0.650000 -0.700000
v -0.200000 -0.650000 -0.700000
v 0.000000 -0.650000 -0.700000
v 0.200000 -0.650000 -0.700000
v 0.400000 -0.650000 -0.700000
v 0.600000 -0.650000 -0.700000
v 0.800000 -0.650000 -0.700000
v 0.800000 -0.550000 -0.700000
v 0.600000 -0.550000 -0.700000
v 0.400000 -0.550000 -0.700000
v 0.200000 -0.550000 -0.700000
v 0.000000 -0.550000 -0.700000
v -0.200000 -0.550000 -0.700000
v -0.400000 -0.550000 -0.700000
v -0.600000 -0.550000 -0.700000
v -0.800000 -0.550000 -0.700000
v 0.800000 -0.650000 -1.020000
v 0.600000 -0.650000 -1.020000
v -0.600000 -0.650000 -1.020000
v -0.800000 -0.650000 -1.020000
v 0.800000 -0.650000 -0.860000
v 0.600000 -0.650000 -0.860000
v -0.600000 -0.650000 -0.860000
v -0.800000 -0.650000 -0.860000
v -0.600000 -0.650000 -1.020000
v -0.800000 -0.650000 -1.020000
v -0.600000 -0.650000 -0.860000
v -0.800000 -0.650000 -0.860000
v -0.600000 -0.650000 -1.020000
v -0.800000 -0.650000 -1.020000
v -0.600000 -0.650000 -0.860000
v -0.800000 -0.650000 -0.860000
v -0.600000 -0.650000 -1.020000
v -0.800000 -0.650000 -1.020000
v -0.600000 -0.650000 -0.860000
v -0.800000 -0.650000 -0.860000
v -0.642736 -1.500000 -0.985812
v -0.757264 -1.500000 -0.985812
v -0.642736 -1.500000 -0.894189
v -0.757264 -1.500000 -0.894189
v 0.761516 -1.500000 -0.989213
v 0.638484 -1.500000 -0.989213
v 0.761516 -1.500000 -0.890787
v 0.638484 -1.500000 -0.890787
vt 0.075922 0.940935
vt 0.075922 0.940936
vt 0.075921 0.940936
vt 0.075919 0.940936
vt 0.075918 0.940936
vt 0.075916 0.940936
vt 0.075916 0.940935
vt 0.075918 0.940935
vt 0.075919 0.940935
vt 0.075921 0.940935
vt 0.075930 0.940936
vt 0.075930 0.940938
vt 0.075930 0.940939
vt 0.075930 0.940941
vt 0.075930 0.940943
vt 0.075930 0.940944
vt 0.075922 0.940944
vt 0.075922 0.940933
vt 0.075921 0.940933
vt 0.075921 0.940931
vt 0.075921 0.940930
vt 0.075922 0.940930
vt 0.075922 0.940931
vt 0.075458 0.941214
vt 0.075459 0.941214
vt 0.075461 0.941214
vt 0.075461 0.941220
vt 0.075459 0.941220
vt 0.075458 0.941220
vt 0.075456 0.941220
vt 0.075456 0.941214
vt 0.075916 0.940930
vt 0.075914 0.940930
vt 0.075914 0.940928
vt 0.075916 0.940928
vt 0.075918 0.940928
vt 0.075919 0.940928
vt 0.075921 0.940928
vt 0.075922 0.940928
vt 0.075919 0.940930
vt 0.075918 0.940930
vt 0.075910 0.940938
vt 0.075912 0.940938
vt 0.075914 0.940944
vt 0.075912 0.940944
vt 0.075910 0.940944
vt 0.075909 0.940944
vt 0.075921 0.940936
vt 0.075922 0.940936
vt 0.075922 0.940938
vt 0.075922 0.940939
vt 0.075922 0.940941
vt 0.075922 0.940943
vt 0.075914 0.940943
vt 0.075914 0.940941
vt 0.075914 0.940939
vt 0.075914 0.940938
vt 0.075914 0.940936
vt 0.075916 0.940936
vt 0.075918 0.940936
vt 0.075919 0.940936
vt 0.075914 0.940935
vt 0.075914 0.940933
vt 0.075914 0.940931
vt 0.075904 0.940944
vt 0.075903 0.940944
vt 0.075901 0.940944
vt 0.075899 0.940944
vt 0.075462 0.941219
vt 0.075462 0.941217
vt 0.075462 0.941216
vt 0.075462 0.941214
vt 0.075464 0.941219
vt 0.075464 0.941217
vt 0.075464 0.941216
vt 0.075464 0.941214
vt 0.075466 0.941219
vt 0.075466 0.941217
vt 0.075466 0.941216
vt 0.075466 0.941214
vt 0.075906 0.940938
vt 0.075907 0.940938
vt 0.075542 0.941214
vt 0.075542 0.940944
vt 0.075407 0.940944
vt 0.075407 0.941214
vt 0.075677 0.941214
vt 0.075677 0.940944
vt 0.075542 0.940944
vt 0.075542 0.941214
vt 0.191586 0.954908
vt 0.191586 0.948324
vt 0.193382 0.948324
vt 0.193382 0.954908
vt 0.209548 0.921988
vt 0.209548 0.927974
vt 0.206555 0.927974
vt 0.206555 0.921988
vt 0.211937 0.941142
vt 0.211937 0.947127
vt 0.208945 0.947127
vt 0.208945 0.941142
vt 0.209548 0.910018
vt 0.209548 0.916003
vt 0.206555 0.916003
vt 0.206555 0.910018
vt 0.174325 0.955147
vt 0.174325 0.955742
vt 0.174027 0.955742
vt 0.174027 0.955147
vt 0.211937 0.935156
vt 0.208945 0.935156
vt 0.199367 0.930368
vt 0.196374 0.930368
vt 0.196374 0.929171
vt 0.199367 0.929171
vt 0.193381 0.930368
vt 0.193381 0.929171
vt 0.217923 0.929171
vt 0.217923 0.935156
vt 0.214930 0.935156
vt 0.214930 0.929171
vt 0.211937 0.929171
vt 0.215534 0.916003
vt 0.215534 0.921988
vt 0.212541 0.921988
vt 0.212541 0.916003
vt 0.190389 0.930368
vt 0.190389 0.929171
vt 0.215534 0.910018
vt 0.212541 0.910018
vt 0.217923 0.941142
vt 0.217923 0.947127
vt 0.214930 0.947127
vt 0.214930 0.941142
vt 0.215534 0.927974
vt 0.212541 0.927974
vt 0.205353 0.930368
vt 0.202360 0.930368
vt 0.202360 0.929171
vt 0.205353 0.929171
vt 0.199367 0.930368
vt 0.199367 0.929171
vt 0.208346 0.930368
vt 0.208346 0.929171
vt 0.175428 0.927974
vt 0.181414 0.927974
vt 0.181414 0.929171
vt 0.175428 0.929171
vt 0.169442 0.927974
vt 0.169442 0.929171
vt 0.187400 0.927974
vt 0.187400 0.929171
vt 0.187400 0.921988
vt 0.187400 0.916003
vt 0.188597 0.916003
vt 0.188597 0.921988
vt 0.188597 0.927974
vt 0.188597 0.929171
vt 0.187400 0.910018
vt 0.188597 0.910018
vt 0.200565 0.951317
vt 0.200565 0.948324
vt 0.201762 0.948324
vt 0.201762 0.951317
vt 0.202959 0.948324
vt 0.202959 0.951316
vt 0.201762 0.951316
vt 0.201762 0.948324
vt 0.194579 0.954310
vt 0.194579 0.948324
vt 0.195776 0.948324
vt 0.195776 0.954310
vt 0.195776 0.954310
vt 0.195776 0.948324
vt 0.196973 0.948324
vt 0.196973 0.954310
vt 0.194579 0.948324
vt 0.194579 0.954310
vt 0.193382 0.954310
vt 0.193382 0.948324
vt 0.200565 0.951316
vt 0.200565 0.954309
vt 0.199367 0.954309
vt 0.199367 0.951316
vt 0.198170 0.948324
vt 0.198170 0.951317
vt 0.196973 0.951317
vt 0.196973 0.948324
vt 0.200565 0.948324
vt 0.199367 0.948324
vt 0.198170 0.954309
vt 0.196973 0.954309
vt 0.280741 0.931640
vt 0.279927 0.931640
vt 0.279927 0.926760
vt 0.280741 0.926760
vt 0.278301 0.944653
vt 0.277488 0.944653
vt 0.277488 0.926760
vt 0.278301 0.926760
vt 0.281554 0.931640
vt 0.280741 0.931640
vt 0.280741 0.926760
vt 0.281554 0.926760
vt 0.276674 0.926760
vt 0.277488 0.926760
vt 0.277488 0.944653
vt 0.276674 0.944653
vt 0.331648 0.923507
vt 0.331648 0.941400
vt 0.326768 0.941400
vt 0.326768 0.923507
vt 0.452890 0.923951
vt 0.452586 0.923951
vt 0.452586 0.923647
vt 0.452890 0.923647
vt 0.452890 0.924559
vt 0.452586 0.924559
vt 0.452586 0.924255
vt 0.452890 0.924255
vt 0.453497 0.924255
vt 0.453193 0.924255
vt 0.453193 0.923951
vt 0.453497 0.923951
vt 0.453497 0.924559
vt 0.453193 0.924559
vt 0.453193 0.923647
vt 0.453497 0.923647
vt 0.452677 0.924559
vt 0.452677 0.924619
vt 0.452646 0.924619
vt 0.452646 0.924559
vt 0.452677 0.925227
vt 0.452677 0.925531
vt 0.452646 0.925531
vt 0.452646 0.925227
vt 0.453588 0.925531
vt 0.453588 0.925227
vt 0.453619 0.925227
vt 0.453619 0.925531
vt 0.453588 0.924619
vt 0.453588 0.924559
vt 0.453619 0.924559
vt 0.453619 0.924619
vt 0.453588 0.924923
vt 0.453619 0.924923
vt 0.452677 0.924923
vt 0.452646 0.924923
vt 0.452890 0.923586
vt 0.453193 0.923586
vt 0.585993 0.930293
vt 0.585430 0.930293
vt 0.585430 0.929590
vt 0.585430 0.928886
vt 0.585993 0.928886
vt 0.585993 0.929590
vt 0.586556 0.929590
vt 0.586556 0.930293
vt 0.586664 0.902155
vt 0.586664 0.901451
vt 0.586840 0.901451
vt 0.586840 0.902155
vt 0.586840 0.902858
vt 0.586840 0.903562
vt 0.586840 0.904265
vt 0.586840 0.904969
vt 0.586840 0.905672
vt 0.586840 0.906376
vt 0.586840 0.907079
vt 0.586840 0.907783
vt 0.586840 0.908486
vt 0.586664 0.908486
vt 0.586664 0.907783
vt 0.586664 0.907079
vt 0.586664 0.906376
vt 0.586664 0.905672
vt 0.586664 0.904969
vt 0.586664 0.904265
vt 0.586664 0.903562
vt 0.586664 0.902858
vt 0.559403 0.901451
vt 0.559403 0.901451
vt 0.559403 0.901451
vt 0.559403 0.901451
vt 0.585430 0.925369
vt 0.585430 0.924666
vt 0.585993 0.924666
vt 0.586556 0.924666
vt 0.586556 0.923962
vt 0.586556 0.923259
vt 0.587119 0.923259
vt 0.587682 0.923259
vt 0.588244 0.923259
vt 0.588244 0.923962
vt 0.588244 0.924666
vt 0.588244 0.925369
vt 0.588244 0.926072
vt 0.588244 0.926776
vt 0.588244 0.927479
vt 0.588244 0.928183
vt 0.588244 0.928886
vt 0.588244 0.929590
vt 0.588244 0.930293
vt 0.587682 0.930293
vt 0.587119 0.930293
vt 0.586556 0.928886
vt 0.585430 0.928183
vt 0.585430 0.927479
vt 0.585430 0.926776
vt 0.585430 0.926072
vt 0.582476 0.925460
vt 0.581913 0.925460
vt 0.582021 0.923962
vt 0.582367 0.923962
vt 0.583179 0.930293
vt 0.582616 0.930293
vt 0.582616 0.929590
vt 0.582616 0.928886
vt 0.582616 0.928183
vt 0.582616 0.927479
vt 0.582616 0.926776
vt 0.582616 0.926072
vt 0.582616 0.925369
vt 0.582616 0.924666
vt 0.582616 0.923962
vt 0.582616 0.923259
vt 0.583179 0.923259
vt 0.583742 0.923259
vt 0.584305 0.923259
vt 0.584867 0.923259
vt 0.585430 0.923259
vt 0.585430 0.923962
vt 0.585430 0.924666
vt 0.585430 0.925369
vt 0.585430 0.926072
vt 0.585430 0.926776
vt 0.585430 0.927479
vt 0.585430 0.928183
vt 0.585430 0.928886
vt 0.585430 0.929590
vt 0.585430 0.930293
vt 0.584867 0.930293
vt 0.584305 0.930293
vt 0.583742 0.930293
vt 0.586664 0.907783
vt 0.586664 0.908486
vt 0.586488 0.908486
vt 0.586488 0.907783
vt 0.586488 0.907079
vt 0.586488 0.906376
vt 0.586488 0.905672
vt 0.586488 0.904969
vt 0.586488 0.904265
vt 0.586488 0.903562
vt 0.586488 0.902858
vt 0.586488 0.902155
vt 0.586488 0.901451
vt 0.586664 0.901451
vt 0.586664 0.902155
vt 0.586664 0.902858
vt 0.586664 0.903562
vt 0.586664 0.904265
vt 0.586664 0.904969
vt 0.586664 0.905672
vt 0.586664 0.906376
vt 0.586664 0.907079
vt 0.560880 0.925228
vt 0.560880 0.924666
vt 0.561056 0.924666
vt 0.561056 0.925228
vt 0.561056 0.925791
vt 0.561056 0.926354
vt 0.561056 0.926917
vt 0.561056 0.927479
vt 0.560880 0.927479
vt 0.560880 0.926917
vt 0.560880 0.926354
vt 0.560880 0.925791
vt 0.561056 0.925228
vt 0.561056 0.924666
vt 0.561232 0.924666
vt 0.561232 0.925228
vt 0.561232 0.925791
vt 0.561232 0.926354
vt 0.561232 0.926917
vt 0.561232 0.927479
vt 0.561056 0.927479
vt 0.561056 0.926917
vt 0.561056 0.926354
vt 0.561056 0.925791
vt 0.559403 0.901451
vt 0.559403 0.901451
vt 0.559403 0.901451
vt 0.559403 0.901451
vt 0.559403 0.901451
vt 0.559403 0.901451
vt 0.559403 0.901451
vt 0.559403 0.901451
vt 0.559403 0.901451
vt 0.559403 0.901451
vt 0.580506 0.923962
vt 0.581209 0.923962
vt 0.581059 0.925458
vt 0.580656 0.925458
vt 0.559403 0.901451
vt 0.559403 0.901451
vt 0.581881 0.912003
vt 0.581881 0.912406
vt 0.581558 0.912406
vt 0.581558 0.912003
vt 0.559965 0.926162
vt 0.559403 0.926162
vt 0.559523 0.924666
vt 0.559845 0.924666
vt 0.579802 0.925459
vt 0.579099 0.925459
vt 0.579249 0.923962
vt 0.579652 0.923962
vt 0.576285 0.923962
vt 0.576848 0.923962
vt 0.576727 0.925460
vt 0.576405 0.925460
vt 0.581558 0.912003
vt 0.581558 0.912436
vt 0.581212 0.912436
vt 0.581212 0.912003
vt 0.560528 0.926162
vt 0.559965 0.926162
vt 0.560074 0.924666
vt 0.560420 0.924666
vt 0.579802 0.923962
vt 0.580506 0.923962
vt 0.580370 0.925459
vt 0.579938 0.925459
vt 0.581209 0.923962
vt 0.581913 0.923962
vt 0.581778 0.925458
vt 0.581345 0.925458
vt 0.585993 0.923962
vt 0.585430 0.923962
vt 0.585430 0.923259
vt 0.585993 0.923259
vn 0.0000 1.0000 0.0000
vn -1.0000 0.0000 0.0000
vn 1.0000 0.0000 0.0000
vn 0.0000 0.0000 -1.0000
vn 0.0000 -1.0000 0.0000
vn 0.0000 0.0000 1.0000
vn 0.9990 -0.0452 0.0000
vn 0.0000 -0.0402 0.9992
vn -0.9987 -0.0502 0.0000
vn 0.0000 -0.0402 -0.9992
vn 0.9987 -0.0502 0.0000
vn -0.9990 -0.0452 0.0000
vn 0.0000 -0.0362 -0.9993
vn 0.0000 -0.0362 0.9993
usemtl Material.003
s off
f 13/1/1 4/2/1 32/3/1 31/4/1 30/5/1 29/6/1 52/7/1 51/8/1 50/9/1 49/10/1
f 32/3/2 4/2/2 3/11/2 25/12/2 26/13/2 27/14/2 28/15/2 1/16/2 2/17/2 29/6/2 30/5/2 31/4/2
f 14/18/1 13/1/1 49/10/1 47/19/1 45/20/1 41/21/1 16/22/1 15/23/1
f 50/24/3 51/25/3 52/26/3 68/27/3 67/28/3 66/29/3 65/30/3 49/31/3
f 44/32/1 21/33/1 6/34/1 40/35/1 39/36/1 38/37/1 37/38/1 8/39/1 16/22/1 41/21/1 42/40/1 43/41/1
f 48/42/4 46/43/4 44/32/4 56/44/4 60/45/4 64/46/4 68/47/4 52/7/4
f 33/48/5 5/49/5 20/50/5 19/51/5 18/52/5 17/53/5 1/16/5 28/15/5 27/14/5 26/13/5 25/12/5 3/11/5 12/54/5 11/55/5 10/56/5 9/57/5 7/58/5 36/59/5 35/60/5 34/61/5
f 52/7/1 29/6/1 2/17/1 24/62/1 23/63/1 22/64/1 21/33/1 44/32/1 46/43/1 48/42/1
f 45/20/6 47/19/6 49/10/6 65/65/6 61/66/6 57/67/6 53/68/6 41/21/6
f 16/22/4 8/39/4 7/58/4 9/57/4 10/56/4 11/55/4 12/54/4 3/11/4 4/2/4 13/1/4 14/18/4 15/23/4
f 40/35/3 6/34/3 5/49/3 33/48/3 34/61/3 35/60/3 36/59/3 7/58/3 8/39/3 37/38/3 38/37/3 39/36/3
f 61/69/1 65/30/1 66/29/1 62/70/1
f 62/70/1 66/29/1 67/28/1 63/71/1
f 63/71/1 67/28/1 68/27/1 64/72/1
f 57/73/1 61/69/1 62/70/1 58/74/1
f 58/74/1 62/70/1 63/71/1 59/75/1
f 59/75/1 63/71/1 64/72/1 60/76/1
f 53/77/1 57/73/1 58/74/1 54/78/1
f 54/78/1 58/74/1 59/75/1 55/79/1
f 55/79/1 59/75/1 60/76/1 56/80/1
f 42/40/2 41/21/2 53/68/2 54/81/2 55/82/2 56/44/2 44/32/2 43/41/2
f 24/62/6 2/17/6 1/16/6 17/53/6 18/52/6 19/51/6 20/50/6 5/49/6 6/34/6 21/33/6 22/64/6 23/63/6
f 69/83/6 73/84/6 74/85/6 70/86/6
f 73/87/2 71/88/2 72/89/2 74/90/2
usemtl Material.002
f 77/91/5 81/92/5 79/93/5 75/94/5
f 115/95/6 108/96/6 89/97/6 93/98/6
f 119/99/2 110/100/2 87/101/2 101/102/2
f 106/103/6 113/104/6 92/105/6 85/106/6
f 113/104/6 115/95/6 93/98/6 92/105/6
f 108/107/2 117/108/2 100/109/2 89/110/2
f 117/111/2 119/99/2 101/102/2 100/112/2
f 87/113/6 110/114/6 122/115/6 121/116/6
f 110/114/6 111/117/6 123/118/6 122/115/6
f 88/119/2 99/120/2 116/121/2 109/122/2
f 109/122/2 116/121/2 117/111/2 108/123/2
f 91/124/6 90/125/6 114/126/6 112/127/6
f 111/117/6 86/128/6 120/129/6 123/118/6
f 84/130/6 91/124/6 112/127/6 107/131/6
f 107/131/6 112/127/6 113/104/6 106/103/6
f 98/132/2 86/133/2 111/134/2 118/135/2
f 118/135/2 111/134/2 110/100/2 119/99/2
f 90/125/6 88/136/6 109/137/6 114/126/6
f 114/126/6 109/137/6 108/96/6 115/95/6
f 107/138/2 106/139/2 126/140/2 127/141/2
f 106/139/2 85/142/2 125/143/2 126/140/2
f 84/144/2 107/138/2 127/141/2 124/145/2
f 92/146/1 93/147/1 140/148/1 139/149/1
f 85/150/1 92/146/1 139/149/1 137/151/1
f 93/147/1 89/152/1 138/153/1 140/148/1
f 100/154/1 101/155/1 144/156/1 143/157/1
f 138/153/1 89/152/1 142/158/1 145/159/1
f 89/152/1 100/154/1 143/157/1 142/158/1
f 101/155/1 87/160/1 141/161/1 144/156/1
f 114/162/2 115/163/2 149/164/2 148/165/2
f 113/166/3 112/167/3 146/168/3 147/169/3
f 112/170/1 114/171/1 148/172/1 146/173/1
f 115/174/5 113/175/5 147/176/5 149/177/5
f 119/178/5 117/179/5 153/180/5 155/181/5
f 118/182/4 119/183/4 155/184/4 154/185/4
f 117/186/6 116/187/6 152/188/6 153/189/6
f 98/190/4 118/182/4 154/185/4 150/191/4
f 116/187/6 99/192/6 151/193/6 152/188/6
usemtl Material.004
f 75/194/2 76/195/2 78/196/2 77/197/2
f 77/198/4 78/199/4 82/200/4 81/201/4
f 81/202/3 82/203/3 80/204/3 79/205/3
f 79/206/6 80/207/6 76/208/6 75/209/6
f 82/210/1 78/211/1 76/212/1 80/213/1
usemtl Material.005
f 104/214/1 95/215/1 86/216/1 98/217/1
f 97/218/1 83/219/1 94/220/1 102/221/1
f 102/221/1 94/220/1 95/215/1 104/214/1
f 91/222/1 103/223/1 105/224/1 90/225/1
f 103/223/1 102/221/1 104/214/1 105/224/1
f 84/226/1 96/227/1 103/223/1 91/222/1
f 96/227/1 97/218/1 102/221/1 103/223/1
f 90/225/1 105/224/1 99/228/1 88/229/1
f 105/224/1 104/214/1 98/217/1 99/228/1
f 120/230/6 86/231/6 130/232/6 135/233/6
f 94/234/6 83/235/6 128/236/6 131/237/6
f 83/238/2 97/239/2 134/240/2 128/241/2
f 84/242/2 124/243/2 136/244/2 129/245/2
f 97/239/2 96/246/2 133/247/2 134/240/2
f 95/248/6 94/234/6 131/237/6 132/249/6
f 96/246/2 84/242/2 129/245/2 133/247/2
f 86/231/6 95/248/6 132/249/6 130/232/6
f 99/228/1 98/217/1 150/250/1 151/251/1
usemtl Material.001
f 172/252/5 160/253/5 206/254/5 205/255/5 221/256/5 220/257/5 216/258/5 173/259/5
f 197/260/4 163/261/4 162/262/4 180/263/4 181/264/4 182/265/4 183/266/4 184/267/4 185/268/4 186/269/4 187/270/4 188/271/4 158/272/4 159/273/4 189/274/4 190/275/4 191/276/4 192/277/4 193/278/4 194/279/4 195/280/4 196/281/4
f 219/282/6 218/283/6 224/284/6 225/285/6
f 200/286/5 199/287/5 222/288/5 218/289/5 219/290/5 166/291/5 165/292/5 164/293/5 158/294/5 188/295/5 187/296/5 186/297/5 185/298/5 184/299/5 183/300/5 182/301/5 181/302/5 180/303/5 162/304/5 175/305/5 174/306/5 173/259/5 216/258/5 217/307/5 221/256/5 205/255/5 204/308/5 203/309/5 202/310/5 201/311/5
f 216/312/7 220/313/7 242/314/7 240/315/7
f 168/316/1 157/317/1 215/318/1 214/319/1 213/320/1 212/321/1 211/322/1 210/323/1 209/324/1 208/325/1 207/326/1 161/327/1 179/328/1 178/329/1 177/330/1 176/331/1 163/332/1 197/333/1 196/334/1 195/335/1 194/336/1 193/337/1 192/338/1 191/339/1 190/340/1 189/341/1 159/342/1 171/343/1 170/344/1 169/345/1
f 215/346/6 157/347/6 156/348/6 198/349/6 199/350/6 200/351/6 201/352/6 202/353/6 203/354/6 204/355/6 205/356/6 206/357/6 160/358/6 161/359/6 207/360/6 208/361/6 209/362/6 210/363/6 211/364/6 212/365/6 213/366/6 214/367/6
f 171/368/2 159/369/2 158/370/2 164/371/2 165/372/2 166/373/2 167/374/2 156/375/2 157/376/2 168/377/2 169/378/2 170/379/2
f 179/380/3 161/381/3 160/382/3 172/383/3 173/384/3 174/385/3 175/386/3 162/387/3 163/388/3 176/389/3 177/390/3 178/391/3
f 224/284/6 226/392/6 230/393/6 228/394/6
f 218/283/6 222/395/6 226/392/6 224/284/6
f 222/395/6 223/396/6 227/397/6 226/392/6
f 223/396/6 219/282/6 225/285/6 227/397/6
f 230/393/6 231/398/6 235/399/6 234/400/6
f 226/392/6 227/397/6 231/398/6 230/393/6
f 227/397/6 225/285/6 229/401/6 231/398/6
f 225/285/6 224/284/6 228/394/6 229/401/6
f 234/402/8 235/403/8 239/404/8 238/405/8
f 231/398/6 229/401/6 233/406/6 235/399/6
f 229/401/6 228/394/6 232/407/6 233/406/6
f 228/394/6 230/393/6 234/400/6 232/407/6
f 237/408/5 236/409/5 238/410/5 239/411/5
f 235/412/9 233/413/9 237/414/9 239/415/9
f 233/416/10 232/417/10 236/418/10 237/419/10
f 232/420/11 234/421/11 238/422/11 236/423/11
f 241/424/5 240/425/5 242/426/5 243/427/5
f 221/428/12 217/429/12 241/430/12 243/431/12
f 217/432/13 216/433/13 240/434/13 241/435/13
f 220/436/14 221/437/14 243/438/14 242/439/14
f 166/291/5 219/290/5 223/440/5 222/288/5 199/287/5 198/441/5 156/442/5 167/443/5
